<?xml version="1.0" encoding="UTF-8" standalone="no" ?>
<!DOCTYPE svg PUBLIC "-//W3C//DTD SVG 1.1//EN" "http://www.w3.org/Graphics/SVG/1.1/DTD/svg11.dtd">
<svg xmlns="http://www.w3.org/2000/svg" xmlns:xlink="http://www.w3.org/1999/xlink" version="1.1" width="1080" height="1080" viewBox="0 0 1080 1080" xml:space="preserve">
<desc>Created with Fabric.js 4.2.0</desc>
<defs>
</defs>
<g transform="matrix(1 0 0 1 540 540)" id="1c447010-7ce1-49f1-a9b2-594246c90b6e"  >
</g>
<g transform="matrix(1 0 0 1 540 540)" id="ac690757-658e-4db4-86cc-f6df57f743e0"  >
<rect style="stroke: none; stroke-width: 1; stroke-dasharray: none; stroke-linecap: butt; stroke-dashoffset: 0; stroke-linejoin: miter; stroke-miterlimit: 4; fill: rgb(255,255,255); fill-rule: nonzero; opacity: 1;" vector-effect="non-scaling-stroke"  x="-540" y="-540" rx="0" ry="0" width="1080" height="1080" />
</g>
<g transform="matrix(20.55 0 0 20.55 540 540)" id="9cab6c45-bd1e-44bc-a8cb-d91ada7f8f09"  >
<path style="stroke: rgb(0,0,0); stroke-width: 0; stroke-dasharray: none; stroke-linecap: butt; stroke-dashoffset: 0; stroke-linejoin: miter; stroke-miterlimit: 4; fill: rgb(159,239,0); fill-rule: nonzero; opacity: 1;" vector-effect="non-scaling-stroke"  transform=" translate(-12, -12)" d="M 11.9959 0.0008 C 11.976886090462028 0.0009821377643297825 11.957879915112509 0.0016490211099265133 11.9389 0.0027999999999995576 C 11.85842163320828 0.008745190452363934 11.779109620415015 0.025495564655521653 11.703100000000001 0.052600000000000174 C 11.645508472655571 0.07329096541586211 11.590159607741134 0.09975924827446137 11.5379 0.13160000000000005 L 1.9357 5.675 C 1.6606798754698904 5.833830576215751 1.4912781515046702 6.127310295569538 1.4912999999999998 6.4449 C 1.4912999999999998 6.4509 1.4916999999999998 6.4577 1.4918999999999998 6.464099999999999 C 1.4916999999999998 6.471099999999999 1.4918999999999998 6.4780999999999995 1.4918999999999998 6.4853 L 1.4918999999999998 17.556 C 1.4918377458113976 17.883708685211197 1.6720699018442224 18.18487700223236 1.9609 18.3397 L 11.5592 23.8813 C 11.577200000000001 23.8915 11.5952 23.901 11.6132 23.91 L 11.6132 23.912 C 11.640237894960679 23.925046077662348 11.667942773182506 23.936662098892704 11.696200000000001 23.9468 C 11.696200000000001 23.9478 11.7062 23.9498 11.708200000000001 23.9508 C 11.736200000000002 23.960800000000003 11.7642 23.968500000000002 11.793200000000002 23.9753 C 11.803200000000002 23.976300000000002 11.804200000000002 23.9783 11.809200000000002 23.979300000000002 C 11.837200000000003 23.985300000000002 11.866200000000003 23.9905 11.895200000000003 23.993900000000004 C 11.895200000000003 23.994400000000002 11.905200000000002 23.994800000000005 11.909200000000002 23.994900000000005 C 11.939200000000001 23.997900000000005 11.970200000000002 23.999900000000004 12.000200000000001 23.999900000000004 C 12.0302 23.999900000000004 12.061200000000001 23.997900000000005 12.0912 23.994900000000005 C 12.0912 23.994400000000006 12.1012 23.994000000000003 12.1052 23.993900000000004 C 12.134148439772424 23.99087051059626 12.162873658468788 23.985993903701296 12.1912 23.979300000000002 C 12.2012 23.9783 12.2022 23.977300000000003 12.2072 23.9753 C 12.23590196550488 23.96847120595882 12.264266672226452 23.960295496374368 12.292200000000001 23.9508 C 12.292200000000001 23.9498 12.302200000000001 23.9478 12.304200000000002 23.9468 C 12.332439048147108 23.936653069047555 12.360141756625191 23.925071334298284 12.387200000000002 23.9121 L 12.387200000000002 23.9101 C 12.40546583579658 23.901042123323204 12.423472973042438 23.891471663342536 12.441200000000002 23.8814 L 22.0398 18.3398 C 22.328591413354545 18.184950291239232 22.508782009159628 17.883787207570126 22.5087 17.5561 L 22.5087 6.4786 C 22.5087 6.4696 22.508100000000002 6.4614 22.5079 6.4528 L 22.5082 6.4528 L 22.5082 6.4448 C 22.508092600975935 6.184883332681376 22.394192053269347 5.938044000067321 22.1965 5.769299999999999 C 22.1865 5.761299999999999 22.177500000000002 5.753099999999999 22.1675 5.7452 C 22.1675 5.7432 22.1575 5.7402 22.1575 5.7382 C 22.1234274920193 5.712168236109396 22.087535829040114 5.68860806627669 22.0501 5.6677 L 12.4533 0.1267 C 12.31306615573139 0.04247528732611362 12.15227647592771 -0.0013386891335201434 11.9887 0.00010000000000007225 z M 12.0059 2.2531 C 12.0779 2.2531 12.1502 2.2718 12.2149 2.3091 L 18.7515 6.0831 C 19.0304 6.2440999999999995 19.0304 6.6464 18.7515 6.8074 L 12.2148 10.5814 C 12.085408469699594 10.656104234849797 11.925991530300406 10.656104234849797 11.7966 10.5814 L 5.26 6.8074 C 4.981199999999999 6.6465000000000005 4.9811 6.2441 5.26 6.0831 L 11.796800000000001 2.3091 C 11.860367674759447 2.2724701156674 11.932433835880573 2.2531605222569544 12.0058 2.2531 z M 3.9258000000000006 8.7111 C 4.001274269952048 8.710005819844422 4.075614618713117 8.729541771960704 4.1408000000000005 8.7676 L 10.6648 12.5342 C 10.793879597979835 12.608676494686511 10.873403462938114 12.746375536023667 10.8734 12.8954 L 10.8734 20.428 C 10.8734 20.749200000000002 10.5257 20.95 10.2474 20.7893 L 3.723700000000001 17.0227 C 3.5946196648085906 16.94817543374935 3.5151020715693484 16.810449132515703 3.515100000000001 16.6614 L 3.515100000000001 9.1288 C 3.515100000000001 8.888 3.710600000000001 8.7148 3.9258000000000006 8.7111 z M 20.085700000000003 8.7111 C 20.300700000000003 8.7151 20.4964 8.8879 20.4964 9.1288 L 20.4964 16.6613 C 20.4964 16.8103 20.416400000000003 16.9481 20.2877 17.0227 L 13.7638 20.7893 C 13.4858 20.9499 13.138 20.749200000000002 13.138 20.4279 L 13.138 12.895400000000002 C 13.138 12.746400000000003 13.218 12.608700000000002 13.3466 12.534100000000002 L 19.8704 8.767500000000002 C 19.935653529352905 8.729430144528854 20.010061167200565 8.709894681989853 20.0856 8.711000000000002 z" stroke-linecap="round" />
</g>
</svg>